<svg width="73" height="12" viewBox="0 0 73 12" fill="none" xmlns="http://www.w3.org/2000/svg">
<path fill-rule="evenodd" clip-rule="evenodd" d="M3.70719 0.427531C2.43474 0.527049 1.52031 0.956808 1.03734 1.68227C0.742175 2.12565 0.614966 2.57659 0.595934 3.24705C0.585143 3.62715 0.604041 3.85841 0.668712 4.13776C0.82896 4.82993 1.29237 5.39436 2.18788 5.98814C2.50731 6.19992 2.7319 6.33216 3.47411 6.7454C4.40374 7.26297 4.68454 7.44999 4.98743 7.75327C5.20934 7.97546 5.30718 8.1321 5.35756 8.34577C5.41742 8.59973 5.37878 8.95357 5.26505 9.19307C5.10689 9.52609 4.81079 9.68261 4.34006 9.68202C3.79624 9.68133 3.43732 9.44065 3.32244 8.99961C3.29938 8.91107 3.2933 8.7675 3.2933 8.31126V7.73479H1.90398H0.514648V8.21679C0.514648 8.73611 0.534461 9.01314 0.591461 9.29082C0.819787 10.4029 1.60655 11.128 2.89735 11.416C3.82319 11.6226 5.01773 11.5998 5.88425 11.3591C6.42807 11.208 6.86336 10.9729 7.20114 10.6478C7.64127 10.2242 7.85494 9.76486 7.9498 9.03847C7.99601 8.68476 7.99576 7.93736 7.94936 7.63963C7.82358 6.8326 7.35798 6.22706 6.3642 5.57798C6.03519 5.36309 5.74216 5.1951 4.99666 4.79394C4.07816 4.29972 3.7443 4.08224 3.50184 3.82029C3.30824 3.61111 3.23621 3.41934 3.23621 3.1131C3.23621 2.52519 3.59032 2.17683 4.18704 2.17776C4.5936 2.17839 4.89006 2.32884 5.04036 2.61081C5.14275 2.80292 5.15843 2.90132 5.15843 3.35193V3.75712H6.4526H7.74677L7.7466 3.36221C7.74629 2.59287 7.68076 2.21282 7.47876 1.80845C7.09984 1.05001 6.30527 0.599617 5.0906 0.454747C4.79047 0.418948 4.01254 0.403646 3.70719 0.427531ZM37.3794 0.484227C35.9852 0.592766 35.0369 1.08455 34.5948 1.92827C34.502 2.10531 34.408 2.35714 34.3644 2.54483C34.2426 3.0706 34.2456 3.7544 34.372 4.23629C34.5418 4.88372 35.0386 5.46179 35.914 6.03073C36.1756 6.2008 36.4507 6.36183 37.0193 6.67796C37.2959 6.83169 37.6516 7.03491 37.8097 7.12955C38.458 7.51752 38.8268 7.86236 38.9611 8.20609C39.0205 8.35803 39.0335 8.70102 38.9878 8.90963C38.9029 9.29691 38.6982 9.51589 38.331 9.61243C38.1656 9.6559 37.8127 9.65644 37.6511 9.61342C37.3789 9.54103 37.1518 9.37041 37.0499 9.16186C36.9579 8.97344 36.9424 8.84275 36.942 8.25341L36.9417 7.71576H35.5693H34.1969L34.2067 8.33905C34.2148 8.8554 34.2231 8.99826 34.2553 9.17169C34.4616 10.2845 35.1884 11.012 36.4062 11.3245C37.3692 11.5716 38.642 11.5589 39.5597 11.2931C40.1072 11.1345 40.4997 10.9143 40.8459 10.5713C41.3908 10.0314 41.5939 9.4079 41.593 8.2772C41.5926 7.79875 41.5719 7.60333 41.4891 7.29905C41.3277 6.70568 40.7982 6.10434 39.9582 5.56077C39.6782 5.37957 39.3458 5.19007 38.6685 4.82552C37.7183 4.31415 37.3935 4.10282 37.151 3.83812C36.9165 3.58224 36.8369 3.27151 36.9134 2.91053C37.0086 2.46088 37.337 2.21632 37.8457 2.21615C38.2272 2.21603 38.5299 2.37392 38.6806 2.65169C38.7767 2.82894 38.7915 2.91525 38.8016 3.36221L38.811 3.77615H40.084H41.3571V3.33916C41.3571 3.09883 41.3476 2.81405 41.336 2.70635C41.1992 1.43592 40.3272 0.701762 38.7307 0.512757C38.4219 0.476215 37.6828 0.460609 37.3794 0.484227ZM68.6393 0.476557C68.3977 0.500709 67.9996 0.566807 67.7969 0.616404C67.1907 0.764758 66.7373 1.00534 66.363 1.37738C65.93 1.80772 65.717 2.26828 65.6012 3.02439C65.5685 3.23862 65.5537 8.21574 65.5847 8.61025C65.6129 8.9699 65.6469 9.163 65.727 9.41911C66.1281 10.7016 67.4686 11.4006 69.4196 11.3447C71.3977 11.2881 72.5975 10.4749 72.8363 9.02896C72.9001 8.64308 72.912 8.28844 72.912 6.77488V5.29871H71.0754H69.2388V6.05998V6.82126H69.7717H70.3046L70.3043 7.72051C70.3039 8.70252 70.2963 8.79146 70.1967 8.97443C70.0252 9.28948 69.7146 9.46214 69.2864 9.48047C68.7146 9.50494 68.3073 9.24739 68.1781 8.77954C68.1467 8.66585 68.1445 8.48008 68.1445 5.95531C68.1445 3.40918 68.1465 3.24423 68.1791 3.1052C68.2991 2.59391 68.6587 2.32394 69.2198 2.32394C69.5621 2.32394 69.7963 2.40906 69.9929 2.60491C70.2233 2.83442 70.2661 2.98422 70.2801 3.60963L70.2903 4.06163H71.5916H72.8929V3.73133C72.8929 2.58744 72.6807 1.92528 72.1417 1.38752C71.6736 0.920457 71.089 0.661243 70.1809 0.518066C69.9766 0.485864 69.8273 0.478194 69.3245 0.474007C68.9895 0.471229 68.6812 0.47237 68.6393 0.476557ZM44.0106 0.756612C44.0051 0.770829 44.0038 2.58866 44.0077 4.79626C44.0139 8.37277 44.018 8.83215 44.0454 9.01251C44.1516 9.7114 44.3579 10.1515 44.7713 10.5613C45.3237 11.1089 46.0863 11.3807 47.2615 11.4489C48.054 11.4948 48.8631 11.4019 49.4587 11.1966C50.5574 10.8177 51.1564 10.0279 51.2529 8.83112C51.2658 8.67188 51.2727 7.2065 51.2727 4.65838V0.731052H49.9694H48.666L48.6609 4.77057L48.6558 8.81009L48.6133 8.93517C48.5053 9.2526 48.2936 9.45649 47.9699 9.55488C47.798 9.60711 47.4408 9.60176 47.2767 9.54453C46.9846 9.44261 46.8022 9.26632 46.6794 8.96701L46.6384 8.86718L46.6289 4.80388L46.6194 0.740568L45.3199 0.735676C44.2399 0.731603 44.0188 0.735144 44.0106 0.756612ZM11.5833 0.802421C11.5503 0.960329 9.68802 11.094 9.68802 11.1156C9.68802 11.1372 9.9192 11.1415 11.0765 11.1415H12.4649L12.4757 11.0796C12.4979 10.9523 13.875 1.74404 13.875 1.72332C13.875 1.7114 13.8922 1.70168 13.9131 1.70168C13.934 1.70168 13.9512 1.71241 13.9512 1.72553C13.9512 1.74878 15.2912 10.9569 15.3125 11.0796L15.3232 11.1415H16.712H18.1008L18.0909 11.0987C18.0783 11.0444 16.1969 0.775092 16.1969 0.760723C16.1969 0.75488 15.1613 0.750084 13.8956 0.750084H11.5942L11.5833 0.802421ZM20.3958 0.887988C20.3866 1.00987 20.1724 10.822 20.174 11.0511L20.1746 11.1415H21.4688H22.7629L22.7631 10.3469C22.7635 8.37416 22.8217 1.80656 22.839 1.78928C22.8491 1.77914 22.8626 1.776 22.8689 1.78232C22.8753 1.78863 23.2651 3.87777 23.7353 6.42482C24.2055 8.9719 24.5946 11.0751 24.6 11.0987L24.6097 11.1415H25.92H27.2302L27.2499 11.0416C27.2607 10.9866 27.6486 8.88622 28.1118 6.37401C28.575 3.8618 28.9613 1.79823 28.9702 1.78827C28.9804 1.77685 28.9924 1.77685 29.0029 1.78827C29.0153 1.8018 29.0852 9.91066 29.0821 10.9655L29.0815 11.1415H30.3765H31.6715L31.6601 10.8037C31.6538 10.6179 31.6067 8.46181 31.5553 6.0124C31.504 3.563 31.4564 1.37696 31.4496 1.15451L31.4373 0.750084L29.3316 0.750102L27.2259 0.750141L26.5886 4.72057C25.9877 8.46422 25.9379 8.75048 25.8952 8.70302C25.8916 8.6991 25.6024 6.91023 25.2524 4.72775L24.6161 0.7596L22.5112 0.754765L20.4062 0.749913L20.3958 0.887988ZM54.1656 5.89821V11.0463H55.4312H56.6968L56.6966 10.8132C56.6965 10.685 56.6666 8.82436 56.6301 6.67852C56.5937 4.53267 56.5638 2.73203 56.5637 2.67706C56.5635 2.52009 56.6087 2.54527 56.6661 2.73416C56.6923 2.82052 56.9544 3.68766 57.2485 4.66114C57.5426 5.63462 58.0969 7.46958 58.4803 8.73881L59.1775 11.0465L61.0155 11.0417L62.8536 11.0368L62.8584 5.89345L62.8632 0.750084H61.578H60.2929L60.3038 1.13548C60.3098 1.34746 60.3396 3.03677 60.37 4.88952C60.4004 6.74227 60.4295 8.40591 60.4347 8.58646C60.4433 8.88913 60.4414 8.91476 60.4109 8.91476C60.3833 8.91476 60.1835 8.24638 59.2005 4.86573C58.553 2.63875 58.0192 0.801698 58.0144 0.783389C58.0061 0.751949 57.8981 0.750084 56.0855 0.750084H54.1656V5.89821Z" fill="#2D2D2D"/>
</svg>
